<?xml version="1.0" standalone="no"?>
<!DOCTYPE svg PUBLIC "-//W3C//DTD SVG 20010904//EN"
 "http://www.w3.org/TR/2001/REC-SVG-20010904/DTD/svg10.dtd">
<svg version="1.0" xmlns="http://www.w3.org/2000/svg"
 width="16.000000pt" height="16.000000pt" viewBox="0 0 16.000000 16.000000"
 preserveAspectRatio="xMidYMid meet">
<metadata>
Created by potrace 1.11, written by Peter Selinger 2001-2013
</metadata>
<g transform="translate(0.000000,16.000000) scale(0.003704,-0.003704)"
fill="#000000" stroke="none">
<path d="M1910 4189 c-92 -11 -275 -47 -310 -61 -14 -6 -79 -11 -146 -12 -116
-1 -122 -2 -170 -31 -27 -17 -64 -53 -83 -80 -25 -37 -59 -65 -124 -105 -415
-257 -724 -642 -881 -1097 -90 -263 -125 -583 -95 -874 85 -833 699 -1553
1509 -1768 208 -55 292 -65 550 -65 258 0 342 10 550 65 729 194 1319 813
1474 1546 126 600 -8 1201 -377 1688 -123 162 -318 343 -498 464 -49 33 -69
53 -79 80 -26 72 -67 118 -135 152 -65 32 -66 32 -168 24 -56 -4 -109 -7 -117
-8 -8 0 -58 12 -110 26 -177 47 -273 59 -500 62 -118 2 -249 -1 -290 -6z
m-376 -129 c132 -23 176 -50 219 -131 26 -49 29 -61 25 -134 -9 -167 -108
-269 -273 -283 -104 -8 -182 30 -229 111 -34 57 -76 184 -76 228 0 101 75 196
174 219 45 11 41 12 160 -10z m1503 5 c34 -10 65 -29 92 -56 39 -39 71 -112
71 -161 0 -25 -44 -158 -68 -205 -49 -95 -130 -139 -240 -130 -84 7 -131 27
-187 78 -58 53 -85 120 -87 212 -2 87 21 147 75 194 37 33 116 62 171 64 17 1
42 5 56 9 38 12 62 11 117 -5z m-597 -223 c41 -22 69 -72 70 -124 0 -34 3 -38
38 -47 29 -8 45 -22 73 -63 19 -29 57 -68 84 -86 49 -33 67 -75 37 -87 -8 -3
-11 -12 -7 -25 4 -11 2 -20 -4 -20 -15 0 -14 -27 2 -33 7 -3 5 -6 -5 -6 -26
-1 -22 -24 11 -55 31 -30 56 -27 48 4 -3 11 2 21 10 24 8 4 13 12 10 20 -3 7
-1 18 5 24 8 8 8 15 -1 25 -9 12 -7 16 10 20 19 5 20 9 10 21 -16 19 2 24 109
29 l75 4 71 -49 c252 -172 472 -470 574 -777 94 -281 104 -607 29 -897 -31
-120 -102 -286 -169 -399 -63 -103 -198 -279 -215 -279 -11 0 -75 81 -75 95 0
5 6 9 13 9 8 0 22 9 31 19 17 19 17 21 -12 58 -17 21 -39 58 -50 83 -16 39
-17 49 -6 75 26 61 15 119 -54 290 -12 28 -44 122 -72 210 -68 215 -116 301
-240 426 -77 78 -111 103 -179 137 -46 23 -89 42 -96 42 -17 0 -14 58 4 65 10
4 11 9 2 19 -9 11 -8 15 5 20 9 3 14 13 10 21 -3 8 -1 17 4 20 6 4 10 13 10
21 0 10 -12 14 -44 14 -49 0 -65 -13 -46 -35 10 -12 9 -15 -5 -15 -12 0 -16
-6 -12 -19 3 -12 -1 -22 -10 -25 -11 -4 -11 -10 -3 -26 13 -24 24 -23 -174
-20 -101 1 -162 7 -190 17 -23 8 -76 15 -118 15 -43 1 -78 5 -78 10 0 4 -8 8
-17 9 -11 0 -13 3 -5 6 17 7 15 33 -2 33 -9 0 -12 7 -9 19 7 27 -8 32 -51 17
-21 -7 -34 -16 -28 -20 5 -3 8 -15 5 -26 -4 -15 0 -20 13 -21 11 0 14 -3 7 -6
-7 -2 -13 -11 -13 -18 0 -7 6 -15 13 -18 6 -2 -6 -10 -28 -17 -228 -74 -474
-305 -674 -632 -36 -60 -42 -76 -35 -97 6 -17 18 -27 35 -29 l26 -3 -33 -94
c-58 -167 -83 -343 -51 -362 21 -12 41 -156 26 -185 -22 -42 -61 -88 -74 -88
-35 0 -220 258 -291 406 -107 223 -149 415 -149 679 0 206 16 314 72 485 104
322 320 613 594 800 l87 60 36 -15 c19 -8 66 -15 103 -16 37 0 77 -4 88 -9 11
-5 14 -9 8 -9 -18 -1 -16 -31 1 -31 9 0 12 -7 9 -19 -3 -10 0 -22 5 -25 6 -3
8 -15 5 -26 -4 -14 0 -20 12 -20 15 0 15 -2 4 -16 -10 -13 -10 -17 2 -24 8 -5
14 -14 14 -20 0 -14 10 -13 45 5 30 16 37 29 21 39 -5 3 -7 15 -4 26 4 14 0
20 -12 20 -14 0 -15 3 -6 14 8 10 8 16 -3 25 -8 6 -12 21 -9 31 4 15 0 20 -13
21 -11 0 -14 3 -6 6 15 6 16 33 0 33 -7 0 8 13 33 28 53 35 110 96 128 139 9
21 22 34 39 37 55 11 160 25 245 31 l87 7 57 55 c85 84 144 101 213 65z m-52
-1949 c-6 -132 -68 -210 -185 -233 -72 -13 -87 -21 -91 -49 -8 -54 44 -64 169
-32 121 31 241 94 351 183 28 22 28 22 43 2 38 -48 77 -128 103 -209 34 -102
49 -115 105 -86 l36 18 35 -36 36 -37 -10 -255 c-6 -139 -13 -282 -16 -315
l-5 -61 -117 -56 c-437 -207 -927 -207 -1363 0 l-116 55 -7 246 c-4 136 -9
277 -12 313 l-6 66 46 23 c59 30 139 101 206 185 30 36 55 63 58 61 5 -5 -32
-84 -53 -111 -13 -19 -13 -23 1 -43 21 -30 49 -28 162 14 219 81 400 198 539
349 43 46 82 84 87 85 4 0 6 -35 4 -77z m-1168 -912 c0 -10 3 -40 7 -67 l6
-48 -41 33 c-23 18 -42 36 -42 40 0 16 42 61 56 61 8 0 14 -8 14 -19z m1916
11 c6 -4 17 -18 24 -31 12 -23 10 -27 -21 -53 l-34 -29 -3 37 c-4 41 4 84 16
84 4 0 12 -4 18 -8z"/>
<path d="M2325 3771 c-128 -80 -270 -358 -360 -706 -60 -231 -62 -310 -9 -303
23 3 32 16 68 98 23 52 51 108 62 125 l19 29 7 -65 c12 -122 77 -209 156 -209
43 0 104 32 134 70 l25 32 16 -25 c21 -32 76 -57 124 -57 107 0 293 161 281
243 -6 40 -35 31 -76 -25 -82 -111 -158 -153 -226 -124 -19 8 -37 24 -41 36
-8 25 -11 22 42 49 90 45 156 126 169 208 9 60 -1 90 -38 109 -26 14 -38 14
-71 4 -86 -26 -188 -169 -203 -286 -11 -90 -99 -163 -160 -135 -41 18 -57 73
-52 175 4 84 6 90 34 112 16 13 48 31 71 40 47 18 57 34 39 59 -30 42 -159
-23 -243 -123 -29 -34 -53 -57 -53 -50 0 46 25 84 111 165 88 84 192 208 236
283 36 59 65 161 60 203 -6 45 -41 87 -71 87 -12 0 -34 -9 -51 -19z m41 -96
c10 -25 -24 -115 -74 -195 -43 -69 -180 -226 -189 -216 -8 7 87 230 127 297
65 109 120 156 136 114z m280 -510 c14 -35 -51 -131 -107 -161 -38 -19 -40
-18 -33 14 12 48 42 98 79 130 40 36 53 39 61 17z"/>
<path d="M1957 3540 c-14 -11 -31 -36 -37 -56 -10 -29 -9 -39 4 -59 9 -14 23
-25 32 -25 61 0 110 103 68 144 -21 21 -36 20 -67 -4z"/>
<path d="M1367 3232 c-42 -46 -109 -267 -122 -398 -6 -60 -5 -72 12 -93 35
-43 58 -20 82 84 15 66 64 165 96 195 l25 24 -14 -49 c-43 -141 -41 -235 3
-235 24 0 35 15 51 65 18 57 75 164 110 205 l30 35 -16 -45 c-23 -64 -22 -145
3 -200 32 -72 89 -112 117 -84 12 12 20 13 37 4 34 -19 46 5 64 124 16 107 41
199 83 301 23 58 16 85 -23 85 -20 0 -30 -12 -58 -72 -19 -40 -42 -98 -51
-128 -15 -49 -46 -223 -46 -259 0 -24 -31 10 -52 57 -30 67 -8 149 72 267 40
59 42 73 19 96 -37 37 -97 6 -185 -96 -26 -30 -49 -53 -51 -51 -3 2 7 27 22
55 20 41 23 56 15 71 -22 40 -58 25 -141 -59 l-78 -79 31 84 c24 68 28 87 18
99 -17 20 -33 19 -53 -3z"/>
<path d="M1666 1335 c-46 -18 -102 -58 -116 -85 -8 -15 0 -13 51 12 38 19 82
32 122 36 l61 5 -27 -32 c-40 -48 -38 -102 7 -147 48 -48 95 -47 143 1 31 31
35 40 31 80 -2 25 -2 45 0 45 2 0 13 -5 25 -11 18 -9 16 -5 -8 21 -69 74 -202
108 -289 75z m215 -83 c15 -13 22 -30 22 -52 0 -66 -82 -95 -123 -43 -52 66
35 148 101 95z"/>
<path d="M2460 1319 c-49 -22 -110 -65 -110 -78 0 -5 27 2 59 15 33 13 81 27
108 30 l48 7 -21 -24 c-30 -34 -37 -73 -20 -114 31 -72 129 -85 181 -23 23 27
26 39 23 80 l-5 47 29 -15 c38 -20 36 -2 -4 32 -79 66 -198 84 -288 43z m210
-69 c11 -11 20 -33 20 -50 0 -65 -79 -94 -119 -44 -27 35 -26 59 4 89 29 30
68 32 95 5z"/>
<path d="M1948 734 c-5 -4 -8 -20 -8 -35 0 -38 43 -71 90 -68 19 1 49 -5 67
-14 41 -22 85 -22 126 0 18 9 50 15 74 14 54 -3 83 23 83 77 l0 37 -18 -35
c-17 -34 -18 -35 -79 -35 -36 0 -67 -5 -74 -12 -18 -18 -80 -16 -104 3 -15 11
-33 13 -70 9 -55 -7 -70 1 -77 43 -1 13 -6 20 -10 16z"/>
</g>
</svg>
